<?xml version="1.0" encoding="UTF-8"?>
<svg id="angle" xmlns="http://www.w3.org/2000/svg" viewBox="0 0 500 500">
  <defs>
    <style>
      .cls-1 {
        fill: none;
        stroke: #fff;
        stroke-miterlimit: 10;
        stroke-width: 6px;
      }

      .cls-2 {
        fill: #fff;
      }
    </style>
  </defs>
  <g id="Layer_5_copy" data-name="Layer 5 copy">
    <g>
      <path class="cls-1" d="M126.73,122.38l-30.01-3.22c2.09-5.35,4.5-9.55,7.22-12.62,2.71-3.07,6.32-5.73,10.8-7.98,3.22-1.62,7.48-2.88,12.77-3.77,5.29-.89,10.93-1.34,16.9-1.34,9.59,0,17.2.54,22.83,1.61,5.63,1.08,10.08,3.32,13.36,6.72,2.31,2.36,3.87,5.7,4.68,10.02.81,4.32.87,8.45.18,12.38l-6.5,36.87c-.69,3.93-.99,7.01-.88,9.24.1,2.23.69,5.07,1.76,8.53h-30.03c-.83-2.15-1.32-3.79-1.49-4.91-.17-1.13-.22-2.9-.16-5.31-4.91,4.04-9.58,6.92-14.02,8.65-6.07,2.31-12.85,3.46-20.34,3.46-9.96,0-17.11-2.31-21.46-6.92-4.35-4.61-5.93-10.3-4.74-17.06,1.12-6.34,3.9-11.56,8.34-15.64,4.44-4.09,11.84-7.13,22.2-9.12,12.43-2.41,20.51-4.1,24.24-5.07,3.73-.97,7.73-2.24,11.99-3.81.69-3.93.37-6.68-.98-8.25-1.35-1.57-4.07-2.36-8.15-2.36-5.24,0-9.32.84-12.24,2.52-2.28,1.31-4.36,3.77-6.26,7.39ZM151.52,139.2c-4.68,1.57-9.51,2.96-14.49,4.17-6.8,1.73-11.22,3.43-13.24,5.11-2.09,1.73-3.32,3.69-3.71,5.9-.44,2.52.07,4.57,1.55,6.17,1.47,1.6,3.91,2.4,7.32,2.4s7.03-.86,10.4-2.59c3.37-1.73,5.92-3.84,7.64-6.33,1.72-2.49,2.94-5.73,3.64-9.71l.9-5.11Z"/>
      <path class="cls-1" d="M263.03,146.12l29.81,3.46c-2.8,6.34-6.52,11.83-11.16,16.47-4.64,4.64-10.17,8.24-16.57,10.81-6.4,2.57-14.19,3.85-23.36,3.85s-16.09-.83-21.69-2.47c-5.6-1.65-10.2-4.32-13.8-8.01-3.59-3.69-6.16-8.02-7.69-13-1.53-4.97-1.58-11.57-.13-19.79,1.51-8.59,4.24-15.74,8.18-21.44,2.89-4.19,6.48-7.94,10.79-11.27,4.31-3.32,8.57-5.8,12.79-7.42,6.69-2.56,14.91-3.85,24.66-3.85,13.63,0,23.59,2.44,29.88,7.31,6.29,4.87,10.06,12,11.28,21.38l-30.82,4.01c-.32-3.56-1.56-6.25-3.73-8.06-2.17-1.81-5.35-2.71-9.54-2.71-5.29,0-9.91,1.9-13.86,5.69-3.95,3.79-6.59,9.53-7.95,17.23-1.21,6.85-.5,12.06,2.12,15.62,2.62,3.56,6.45,5.34,11.48,5.34,4.19,0,7.91-1.07,11.14-3.22,3.23-2.15,5.95-5.45,8.15-9.91Z"/>
      <path class="cls-1" d="M370.41,146.12l29.81,3.46c-2.8,6.34-6.52,11.83-11.16,16.47-4.64,4.64-10.17,8.24-16.57,10.81-6.4,2.57-14.19,3.85-23.36,3.85s-16.09-.83-21.69-2.47c-5.6-1.65-10.2-4.32-13.8-8.01-3.59-3.69-6.16-8.02-7.69-13-1.53-4.97-1.58-11.57-.13-19.79,1.51-8.59,4.24-15.74,8.18-21.44,2.89-4.19,6.48-7.94,10.79-11.27,4.31-3.32,8.57-5.8,12.79-7.42,6.69-2.56,14.91-3.85,24.66-3.85,13.63,0,23.59,2.44,29.88,7.31,6.29,4.87,10.06,12,11.28,21.38l-30.82,4.01c-.32-3.56-1.56-6.25-3.73-8.06-2.17-1.81-5.35-2.71-9.54-2.71-5.29,0-9.91,1.9-13.86,5.69-3.95,3.79-6.59,9.53-7.95,17.23-1.21,6.85-.5,12.06,2.12,15.62,2.62,3.56,6.45,5.34,11.48,5.34,4.19,0,7.91-1.07,11.14-3.22,3.23-2.15,5.95-5.45,8.15-9.91Z"/>
    </g>
    <g>
      <path class="cls-1" d="M192.52,192.58h32l-3.84,21.78h-32l3.84-21.78ZM186.92,224.34h32l-14.72,83.49h-32l14.72-83.49Z"/>
      <path class="cls-1" d="M239.35,224.34h29.79l-2.4,13.6c5.43-5.55,10.64-9.52,15.62-11.91,4.98-2.38,10.75-3.58,17.3-3.58,8.86,0,15.32,2.63,19.4,7.9,4.08,5.27,5.14,13.4,3.2,24.41l-9.36,53.06h-32.15l8.1-45.91c.92-5.24.61-8.95-.95-11.12-1.56-2.17-4.09-3.26-7.6-3.26-3.88,0-7.28,1.47-10.21,4.4-2.93,2.94-5.06,8.2-6.4,15.8l-7.07,40.09h-32l14.72-83.49Z"/>
      <path class="cls-1" d="M390.94,192.58l-5.6,31.76h17.61l-4.13,23.43h-17.61l-5.22,29.58c-.63,3.56-.7,5.91-.22,7.06.73,1.78,2.41,2.67,5.03,2.67,2.36,0,5.78-.68,10.26-2.04l-1.54,22.09c-8.22,1.73-15.76,2.59-22.63,2.59-7.97,0-13.66-1.02-17.07-3.06-3.41-2.04-5.66-5.14-6.73-9.3-1.07-4.16-.79-10.9.85-20.22l5.18-29.36h-11.79l4.13-23.43h11.79l2.7-15.33,34.97-16.43Z"/>
    </g>
  </g>
  <g id="Layer_7_copy" data-name="Layer 7 copy">
    <path class="cls-2" d="M406.62,322s-17.07,96.79-17.09,96.89c-1.97,10.38-11,18.75-20.31,18.75s-15.39-8.37-13.7-18.75c.02-.1,17.08-96.89,17.08-96.89h34.01Z"/>
    <path class="cls-2" d="M336.3,322s-13.72,77.79-13.74,77.89c-1.97,10.38-11,18.75-20.31,18.75s-15.39-8.37-13.7-18.75c.02-.1,13.73-77.89,13.73-77.89h34.01Z"/>
    <path class="cls-2" d="M266.16,322s-10.72,60.79-10.74,60.89c-1.97,10.38-11,18.75-20.31,18.75s-15.39-8.37-13.7-18.75c.02-.1,10.73-60.89,10.73-60.89h34.01Z"/>
    <path class="cls-2" d="M195.84,322s-7.37,41.79-7.39,41.89c-1.97,10.38-11,18.75-20.31,18.75s-15.39-8.37-13.7-18.75c.02-.1,7.38-41.89,7.38-41.89h34.01Z"/>
    <path class="cls-2" d="M125.52,322s-4.02,22.79-4.04,22.89c-1.97,10.38-11,18.75-20.31,18.75s-15.39-8.37-13.7-18.75c.02-.1,4.03-22.89,4.03-22.89h34.01Z"/>
  </g>
</svg>